<?xml version="1.0" encoding="utf-8"?>
<svg class="topography-shape js-shape" width="1200px" height="580px" viewBox="0 0 1200 580" version="1.1" xmlns="http://www.w3.org/2000/svg" xmlns:bx="https://boxy-svg.com">
  <defs>
    <filter id="inner-shadow-filter-0" x="-500%" y="-500%" width="1000%" height="1000%" bx:preset="inner-shadow 1 0 0 3 0.5 rgba(0,0,0,0.7)">
      <feOffset dx="0" dy="0"/>
      <feGaussianBlur stdDeviation="3"/>
      <feComposite operator="out" in="SourceGraphic"/>
      <feComponentTransfer result="choke">
        <feFuncA type="linear" slope="1"/>
      </feComponentTransfer>
      <feFlood flood-color="rgba(0,0,0,0.7)" result="color"/>
      <feComposite operator="in" in="color" in2="choke" result="shadow"/>
      <feComposite operator="over" in="shadow" in2="SourceGraphic"/>
    </filter>
  </defs>
  <path d="M -678.286 558.282 C -732.006 496.558 -742.272 457.86 -709.085 442.188 C -659.304 418.68 -522.083 409.277 -483.809 358.282 C -445.536 307.288 -249.804 346.71 -183.574 434.232 C -117.345 521.754 -7.296 656.654 -299.157 656.654 C -493.733 656.654 -620.107 623.864 -678.285 558.282 L -678.286 558.282 Z" fill="#FFFA72" fill-rule="nonzero" style="filter: url(#inner-shadow-filter-0);" transform="matrix(0, 1, -1, 0, 78.569885, 913.738342)"/>
  <path d="M -979.897 747.251 C -1030.532 574.424 -996.716 466.07 -878.459 422.188 C -701.07 356.366 -301.65 330.037 -112.044 187.251 C 77.556 44.468 561.877 154.85 605.833 399.911 C 649.79 644.973 739.848 1022.693 -77.363 1022.693 C -622.176 1022.693 -923.014 930.881 -979.895 747.251 L -979.897 747.251 Z" fill="#FFFA72" fill-rule="nonzero" style="position: relative; z-index: 0; fill: rgb(214, 242, 255); filter: url(#inner-shadow-filter-0);" transform="matrix(0, 1, -1, 0, 388.33815, 758.248306)"/>
  <path d="M -946.618 721.264 C -1003.827 557.696 -977.646 455.146 -868.083 413.615 C -703.734 351.319 -327.127 326.401 -155.351 191.264 C 16.418 56.13 480.725 160.599 535.496 392.532 C 590.268 624.465 695.801 981.95 -77.631 981.95 C -593.257 981.95 -882.913 895.057 -946.615 721.264 L -946.618 721.264 Z" fill="#FFFA72" fill-rule="nonzero" style="position: relative; z-index: 1; fill: rgb(199, 225, 243); filter: url(#inner-shadow-filter-0);" transform="matrix(0, 1, -1, 0, 355.299057, 757.951645)"/>
  <path d="M -915.004 697.572 C -977.348 543.262 -957.898 446.517 -856.663 407.337 C -704.805 348.567 -350.791 325.059 -195.656 197.572 C -40.526 70.087 402.847 168.642 466.39 387.447 C 529.934 606.252 647.792 943.502 -81.861 943.502 C -568.301 943.502 -846.009 861.527 -915.001 697.572 L -915.004 697.572 Z" fill="#FFFA72" fill-rule="nonzero" style="position: relative; z-index: 2; fill: rgb(184, 207, 230); filter: url(#inner-shadow-filter-0);" transform="matrix(0, 1, -1, 0, 324.249603, 760.254974)"/>
  <path d="M -884.513 675.902 C -950.672 530.851 -937.127 439.911 -843.885 403.081 C -704.017 347.838 -372.394 325.741 -232.81 205.902 C -93.231 86.066 328.365 178.708 398.811 384.385 C 469.257 590.062 596.559 907.077 -89.315 907.077 C -546.568 907.077 -811.63 830.02 -884.511 675.902 L -884.513 675.902 Z" fill="#FFFA72" fill-rule="nonzero" style="position: relative; z-index: 3; fill: rgb(169, 190, 218); filter: url(#inner-shadow-filter-0);" transform="matrix(0, 1, -1, 0, 295.257553, 764.546249)"/>
  <path d="M -854.657 656.014 C -923.417 520.221 -915.014 435.085 -829.454 400.607 C -701.113 348.889 -391.696 328.203 -266.659 216.014 C -141.626 103.827 257.417 190.555 333.041 383.104 C 408.664 575.652 542.752 872.432 -99.342 872.432 C -527.41 872.432 -779.176 800.294 -854.655 656.014 L -854.657 656.014 Z" fill="#FFFA72" fill-rule="nonzero" style="position: relative; z-index: 4; fill: rgb(154, 173, 206); filter: url(#inner-shadow-filter-0);" transform="matrix(0, 1, -1, 0, 268.416656, 770.248077)"/>
  <path d="M -827.729 638.253 C -897.958 511.719 -893.989 432.388 -815.828 400.26 C -698.582 352.069 -411.201 332.792 -299.777 228.253 C -188.357 123.715 187.412 204.53 266.612 383.95 C 345.812 563.37 484.217 839.915 -114.098 839.915 C -512.979 839.915 -750.851 772.696 -827.727 638.253 L -827.729 638.253 Z" fill="#FFFA72" fill-rule="nonzero" style="position: relative; z-index: 5; fill: rgb(139, 155, 193); filter: url(#inner-shadow-filter-0);" transform="matrix(0, 1, -1, 0, 241.664948, 780.115875)"/>
  <path d="M -803.531 622.483 C -874.175 505.208 -873.978 431.681 -802.945 401.905 C -696.393 357.239 -430.885 339.374 -332.203 242.483 C -233.522 145.595 118.298 220.496 199.576 386.788 C 280.855 553.08 421.269 809.39 -133.267 809.39 C -502.961 809.39 -726.378 747.089 -803.529 622.483 L -803.531 622.483 Z" fill="#FFFA72" fill-rule="nonzero" style="position: relative; z-index: 6; fill: rgb(125, 138, 181); filter: url(#inner-shadow-filter-0);" transform="matrix(0, 1, -1, 0, 214.969421, 793.911072)"/>
  <path d="M -780.714 608.343 C -850.776 500.326 -853.727 432.605 -789.571 405.179 C -693.334 364.04 -449.549 347.584 -362.784 258.343 C -276.023 169.104 51.213 238.092 133.16 391.256 C 215.106 544.419 355.355 780.494 -155.402 780.494 C -495.91 780.494 -704.343 723.112 -780.712 608.343 L -780.714 608.343 Z" fill="#FFFA72" fill-rule="nonzero" style="position: relative; z-index: 7; fill: rgb(110, 121, 169); filter: url(#inner-shadow-filter-0);" transform="matrix(0, 1, -1, 0, 189.242813, 809.995865)"/>
  <path d="M -758.9 595.69 C -827.438 496.932 -832.945 435.015 -775.426 409.94 C -689.144 372.327 -466.937 357.282 -391.311 275.69 C -315.688 194.1 -13.639 257.175 67.637 397.21 C 148.911 537.245 286.931 753.085 -180.046 753.085 C -491.368 753.085 -684.316 700.621 -758.898 595.69 L -758.9 595.69 Z" fill="#FFFA72" fill-rule="nonzero" style="position: relative; z-index: 8; fill: rgb(95, 103, 156); filter: url(#inner-shadow-filter-0);" transform="matrix(0, 1, -1, 0, 164.656387, 827.914444)"/>
  <path d="M -737.875 584.425 C -803.985 494.926 -811.483 438.813 -760.371 416.089 C -683.702 382.002 -482.936 368.368 -417.703 294.425 C -352.473 220.484 -76.187 277.646 3.138 404.553 C 82.463 531.46 216.282 727.065 -206.916 727.065 C -489.052 727.065 -666.034 679.519 -737.873 584.425 L -737.875 584.425 Z" fill="#FFFA72" fill-rule="nonzero" style="position: relative; z-index: 9; fill: rgb(80, 86, 144); filter: url(#inner-shadow-filter-0);" transform="matrix(0, 1, -1, 0, 141.278244, 847.401718)"/>
  <path d="M -717.497 574.473 C -780.312 494.231 -789.256 443.924 -744.331 423.55 C -676.943 392.99 -497.485 380.766 -441.929 314.473 C -386.374 248.18 -136.406 299.429 -60.262 413.208 C 15.882 526.986 143.602 702.356 -235.817 702.356 C -488.766 702.356 -649.323 659.729 -717.496 574.473 L -717.497 574.473 Z" fill="#FFFA72" fill-rule="nonzero" style="position: relative; z-index: 10; fill: rgb(65, 69, 132); filter: url(#inner-shadow-filter-0);" transform="matrix(0, 1, -1, 0, 119.130127, 868.282349)"/>
  <path d="M -697.659 565.772 C -756.339 494.789 -766.201 450.286 -727.249 432.264 C -668.821 405.229 -510.544 394.416 -463.968 335.772 C -417.394 277.129 -194.281 322.464 -122.513 423.114 C -50.743 523.764 69.04 678.899 -266.6 678.899 C -490.363 678.899 -634.046 641.191 -697.658 565.772 L -697.659 565.772 Z" fill="#FFFA72" fill-rule="nonzero" style="position: relative; z-index: 11; fill: rgb(50, 51, 119); filter: url(#inner-shadow-filter-0);" transform="matrix(0, 1, -1, 0, 98.224213, 890.424835)"/>
</svg>