<?xml version="1.0" encoding="utf-8"?>
<svg class="topography-shape js-shape" width="1200px" height="580px" viewBox="0 0 1200 580" version="1.1" xmlns="http://www.w3.org/2000/svg" xmlns:bx="https://boxy-svg.com">
  <defs>
    <filter id="inner-shadow-filter-0" x="-500%" y="-500%" width="1000%" height="1000%" bx:preset="inner-shadow 1 0 0 3 0.5 rgba(0,0,0,0.7)">
      <feOffset dx="0" dy="0"/>
      <feGaussianBlur stdDeviation="3"/>
      <feComposite operator="out" in="SourceGraphic"/>
      <feComponentTransfer result="choke">
        <feFuncA type="linear" slope="1"/>
      </feComponentTransfer>
      <feFlood flood-color="rgba(0,0,0,0.7)" result="color"/>
      <feComposite operator="in" in="color" in2="choke" result="shadow"/>
      <feComposite operator="over" in="shadow" in2="SourceGraphic"/>
    </filter>
  </defs>
  <path d="M 799.442 441.957 C 773.56 384.902 778.377 349.129 813.888 334.643 C 867.158 312.912 993.894 304.22 1046.795 257.083 C 1099.697 209.944 1261.299 246.386 1289.062 327.289 C 1316.825 408.192 1366.777 532.89 1104.476 532.89 C 929.608 532.89 827.932 502.579 799.444 441.957 L 799.442 441.957 Z" fill="#FFFA72" fill-rule="nonzero" style="filter: url(#inner-shadow-filter-0);"/>
  <path d="M 427.375 321.502 C 444.582 161.745 514.291 61.585 636.493 21.021 C 819.799 -39.822 1188.32 -64.161 1410.533 -196.148 C 1632.741 -328.133 2027.955 -226.098 1978.536 0.429 C 1929.117 226.959 1872.993 576.113 1138.551 576.113 C 648.918 576.113 411.865 491.245 427.377 321.502 L 427.375 321.502 Z" fill="#FFFA72" fill-rule="nonzero" style="position: relative; z-index: 0; fill: rgb(199, 225, 243); filter: url(#inner-shadow-filter-0);"/>
  <path d="M 464.912 338.69 C 472.848 187.492 533.589 92.698 647.126 54.307 C 817.434 -3.278 1164.941 -26.311 1368.354 -151.228 C 1571.76 -276.143 1951.133 -179.575 1916.198 34.818 C 1881.261 249.213 1846.389 579.662 1151.292 579.662 C 687.89 579.662 459.1 499.341 464.914 338.69 L 464.912 338.69 Z" fill="#FFFA72" fill-rule="nonzero" style="position: relative; z-index: 1; fill: rgb(184, 207, 230); filter: url(#inner-shadow-filter-0);"/>
  <path d="M 501.034 348.079 C 500.997 205.438 553.581 116.01 658.782 79.793 C 816.583 25.467 1143.274 3.737 1328.955 -114.11 C 1514.633 -231.953 1877.338 -140.851 1855.048 61.407 C 1832.761 263.665 1816.308 575.41 1160.555 575.41 C 723.383 575.41 503.547 499.635 501.036 348.079 L 501.034 348.079 Z" fill="#FFFA72" fill-rule="nonzero" style="position: relative; z-index: 2; fill: rgb(169, 190, 218); filter: url(#inner-shadow-filter-0);"/>
  <path d="M 536.054 357.468 C 529.229 223.385 574.401 139.322 671.565 105.278 C 817.313 54.213 1123.366 33.786 1292.297 -76.989 C 1461.223 -187.762 1806.502 -102.127 1795.181 87.996 C 1783.86 278.118 1783.235 571.159 1166.827 571.159 C 755.886 571.159 545.632 499.93 536.056 357.468 L 536.054 357.468 Z" fill="#FFFA72" fill-rule="nonzero" style="position: relative; z-index: 3; fill: rgb(154, 173, 206); filter: url(#inner-shadow-filter-0);"/>
  <path d="M 570.24 366.854 C 557.72 241.331 596.163 162.633 685.568 130.762 C 819.679 82.956 1105.263 63.834 1258.344 -39.87 C 1411.422 -143.573 1738.579 -63.404 1736.675 114.582 C 1734.769 292.57 1747.585 566.907 1170.524 566.907 C 785.812 566.907 585.722 500.223 570.242 366.854 L 570.24 366.854 Z" fill="#FFFA72" fill-rule="nonzero" style="position: relative; z-index: 4; fill: rgb(139, 155, 193); filter: url(#inner-shadow-filter-0);"/>
  <path d="M 602.599 376.241 C 585.396 259.277 617.749 185.945 699.653 156.248 C 822.51 111.7 1087.779 93.881 1225.852 -2.753 C 1363.919 -99.384 1672.307 -24.68 1678.379 141.171 C 1684.452 307.023 1708.491 562.653 1170.775 562.653 C 812.293 562.653 622.905 500.518 602.6 376.241 L 602.599 376.241 Z" fill="#FFFA72" fill-rule="nonzero" style="position: relative; z-index: 5; fill: rgb(125, 138, 181); filter: url(#inner-shadow-filter-0);"/>
  <path d="M 633.254 385.629 C 612.32 277.223 639.176 209.257 713.821 181.733 C 825.789 140.444 1070.886 123.93 1194.733 34.367 C 1318.576 -55.194 1607.585 14.043 1620.291 167.759 C 1632.995 321.475 1666.182 558.402 1167.811 558.402 C 835.56 558.402 657.377 500.812 633.256 385.629 L 633.254 385.629 Z" fill="#FFFA72" fill-rule="nonzero" style="position: relative; z-index: 6; fill: rgb(110, 121, 169); filter: url(#inner-shadow-filter-0);"/>
  <path d="M 662.839 395.018 C 639.067 295.169 660.988 232.569 728.598 207.217 C 830.015 169.189 1055.081 153.979 1165.439 71.486 C 1275.797 -11.005 1544.856 52.766 1562.925 194.347 C 1580.994 335.928 1621.375 554.15 1162.348 554.15 C 856.328 554.15 689.828 501.106 662.84 395.018 L 662.839 395.018 Z" fill="#FFFA72" fill-rule="nonzero" style="position: relative; z-index: 7; fill: rgb(95, 103, 156); filter: url(#inner-shadow-filter-0);"/>
  <path d="M 691.545 404.405 C 665.784 313.115 683.304 255.881 744.095 232.702 C 835.285 197.934 1040.446 184.027 1138.02 108.605 C 1235.59 33.185 1484.159 91.491 1506.389 220.935 C 1528.619 350.38 1574.339 549.897 1154.658 549.897 C 874.868 549.897 720.499 501.4 691.547 404.405 L 691.545 404.405 Z" fill="#FFFA72" fill-rule="nonzero" style="position: relative; z-index: 8; fill: rgb(80, 86, 144); filter: url(#inner-shadow-filter-0);"/>
  <path d="M 719.489 413.793 C 692.55 331.062 706.173 279.193 760.354 258.187 C 841.626 226.679 1027.007 214.075 1112.462 145.725 C 1197.916 77.375 1425.477 130.213 1450.72 247.523 C 1475.959 364.832 1525.247 545.645 1144.913 545.645 C 891.352 545.645 749.547 501.696 719.491 413.793 L 719.489 413.793 Z" fill="#FFFA72" fill-rule="nonzero" style="position: relative; z-index: 9; fill: rgb(65, 69, 132); filter: url(#inner-shadow-filter-0);"/>
  <path d="M 746.749 423.181 C 719.414 349.008 729.63 302.506 777.398 283.672 C 849.05 255.424 1014.768 244.124 1088.752 182.843 C 1162.736 121.565 1368.79 168.939 1395.935 274.112 C 1423.081 379.287 1474.231 541.394 1133.24 541.394 C 905.911 541.394 777.082 501.99 746.75 423.181 L 746.749 423.181 Z" fill="#FFFA72" fill-rule="nonzero" style="position: relative; z-index: 10; fill: rgb(50, 51, 119); filter: url(#inner-shadow-filter-0);"/>
  <path d="M 773.386 432.57 C 746.407 366.955 753.693 325.818 795.237 309.157 C 857.558 284.169 1003.728 274.172 1066.866 219.963 C 1130.005 165.755 1314.068 207.661 1342.046 300.7 C 1370.024 393.739 1421.382 537.142 1119.735 537.142 C 918.637 537.142 803.189 502.284 773.387 432.57 L 773.386 432.57 Z" fill="#FFFA72" fill-rule="nonzero" style="position: relative; z-index: 11; fill: rgb(35, 34, 107); filter: url(#inner-shadow-filter-0);"/>
</svg>