<?xml version="1.0" encoding="utf-8"?>
<svg class="topography-shape js-shape" width="1200px" height="580px" viewBox="0 0 1200 580" version="1.1" xmlns="http://www.w3.org/2000/svg" xmlns:bx="https://boxy-svg.com">
  <defs>
    <filter id="inner-shadow-filter-0" x="-500%" y="-500%" width="1000%" height="1000%" bx:preset="inner-shadow 1 0 0 3 0.5 rgba(0,0,0,0.7)">
      <feOffset dx="0" dy="0"/>
      <feGaussianBlur stdDeviation="3"/>
      <feComposite operator="out" in="SourceGraphic"/>
      <feComponentTransfer result="choke">
        <feFuncA type="linear" slope="1"/>
      </feComponentTransfer>
      <feFlood flood-color="rgba(0,0,0,0.7)" result="color"/>
      <feComposite operator="in" in="color" in2="choke" result="shadow"/>
      <feComposite operator="over" in="shadow" in2="SourceGraphic"/>
    </filter>
  </defs>
  <path d="M -183.98 543.872 C -212.672 605.596 -207.246 644.294 -167.705 659.966 C -108.392 683.474 32.642 692.877 91.594 743.872 C 150.544 794.866 330.291 755.444 361.031 667.922 C 391.772 580.4 447.121 445.5 155.261 445.5 C -39.315 445.5 -152.393 478.291 -183.979 543.872 L -183.98 543.872 Z" fill="#FFFA72" fill-rule="nonzero" style="filter: url(#inner-shadow-filter-0);" transform="matrix(-0.82878, 0.559575, -0.559575, -0.82878, 507.692922, 1056.654531)"/>
  <path d="M -1056.148 341.186 C -1036.704 514.014 -958.953 622.368 -822.903 666.25 C -618.825 732.072 -208.729 758.4 38.775 901.186 C 286.271 1043.969 725.834 933.588 670.422 688.526 C 615.011 443.466 551.911 65.745 -265.301 65.745 C -810.112 65.745 -1073.723 157.557 -1056.145 341.186 L -1056.148 341.186 Z" fill="#FFFA72" fill-rule="nonzero" style="position: relative; z-index: 0; fill: rgb(214, 242, 255); filter: url(#inner-shadow-filter-0);" transform="matrix(-0.82878, 0.559575, -0.559575, -0.82878, -60.82168, 1048.89909)"/>
  <path d="M -968.769 353.049 C -959.654 516.618 -891.891 619.168 -765.488 660.699 C -575.88 722.995 -189.169 747.913 37.402 883.049 C 263.968 1018.184 685.914 913.715 646.641 681.782 C 607.368 449.85 567.948 92.364 -205.486 92.364 C -721.112 92.364 -975.534 179.257 -968.766 353.049 L -968.769 353.049 Z" fill="#FFFA72" fill-rule="nonzero" style="position: relative; z-index: 1; fill: rgb(199, 225, 243); filter: url(#inner-shadow-filter-0);" transform="matrix(-0.82878, 0.559575, -0.559575, -0.82878, -2.640685, 1036.184988)"/>
  <path d="M -884.724 366.113 C -884.498 520.422 -825.82 617.168 -708.699 656.348 C -533.012 715.118 -169.465 738.625 37.364 866.113 C 244.187 993.598 647.597 895.043 622.419 676.238 C 597.241 457.433 578.352 120.183 -151.302 120.183 C -637.742 120.183 -882.21 202.158 -884.722 366.113 L -884.724 366.113 Z" fill="#FFFA72" fill-rule="nonzero" style="position: relative; z-index: 2; fill: rgb(184, 207, 230); filter: url(#inner-shadow-filter-0);" transform="matrix(-0.82878, 0.559575, -0.559575, -0.82878, 52.960907, 1026.660268)"/>
  <path d="M -803.699 380.388 C -811.043 525.438 -760.623 616.378 -652.448 653.208 C -490.179 708.451 -149.596 730.549 38.579 850.387 C 226.75 970.223 610.782 877.581 597.83 671.904 C 584.877 466.228 583.635 149.213 -102.239 149.213 C -559.493 149.213 -793.307 226.269 -803.697 380.388 L -803.699 380.388 Z" fill="#FFFA72" fill-rule="nonzero" style="position: relative; z-index: 3; fill: rgb(169, 190, 218); filter: url(#inner-shadow-filter-0);" transform="matrix(-0.82878, 0.559575, -0.559575, -0.82878, 105.960599, 1020.353133)"/>
  <path d="M -725.423 395.889 C -739.121 531.681 -696.197 616.817 -596.657 651.296 C -447.345 703.013 -129.541 723.7 40.987 835.889 C 211.51 948.076 575.387 861.347 572.936 668.799 C 570.484 476.25 584.233 179.472 -57.863 179.472 C -485.93 179.472 -708.445 251.609 -725.421 395.889 L -725.423 395.889 Z" fill="#FFFA72" fill-rule="nonzero" style="position: relative; z-index: 4; fill: rgb(154, 173, 206); filter: url(#inner-shadow-filter-0);" transform="matrix(-0.82878, 0.559575, -0.559575, -0.82878, 156.319567, 1017.311045)"/>
  <path d="M -649.901 411.879 C -668.823 538.412 -632.687 617.743 -541.498 649.871 C -404.712 698.062 -109.514 717.338 44.3 821.878 C 198.108 926.416 541.109 845.601 547.557 666.181 C 554.005 486.761 580.276 210.218 -18.04 210.218 C -416.921 210.218 -627.537 277.436 -649.899 411.879 L -649.901 411.879 Z" fill="#FFFA72" fill-rule="nonzero" style="position: relative; z-index: 5; fill: rgb(139, 155, 193); filter: url(#inner-shadow-filter-0);" transform="matrix(-0.82878, 0.559575, -0.559575, -0.82878, 205.633187, 1015.562937)"/>
  <path d="M -576.952 428.326 C -600.043 545.601 -570.032 619.127 -486.926 648.904 C -362.264 693.569 -89.512 711.435 48.458 808.325 C 186.424 905.214 507.875 830.312 521.725 664.02 C 535.575 497.728 572.061 241.419 17.523 241.419 C -352.171 241.419 -550.325 303.72 -576.95 428.326 L -576.952 428.326 Z" fill="#FFFA72" fill-rule="nonzero" style="position: relative; z-index: 6; fill: rgb(125, 138, 181); filter: url(#inner-shadow-filter-0);" transform="matrix(-0.82878, 0.559575, -0.559575, -0.82878, 253.961228, 1015.02927)"/>
  <path d="M -506.327 445.537 C -532.591 553.553 -508.082 621.275 -432.805 648.701 C -319.887 689.84 -69.43 706.295 53.521 795.536 C 176.467 884.776 475.731 815.787 495.572 662.624 C 515.414 509.46 559.938 273.385 49.18 273.385 C -291.328 273.385 -476.493 330.768 -506.325 445.537 L -506.327 445.537 Z" fill="#FFFA72" fill-rule="nonzero" style="position: relative; z-index: 7; fill: rgb(110, 121, 169); filter: url(#inner-shadow-filter-0);" transform="matrix(-0.82878, 0.559575, -0.559575, -0.82878, 300.648401, 1016.526642)"/>
  <path d="M -437.879 463.561 C -466.372 562.318 -446.773 624.235 -379.086 649.31 C -277.553 686.923 -49.246 701.968 59.464 783.56 C 168.171 865.15 444.644 802.075 469.138 662.04 C 493.631 522.004 544.131 306.164 77.154 306.164 C -234.168 306.164 -405.842 358.628 -437.877 463.561 L -437.879 463.561 Z" fill="#FFFA72" fill-rule="nonzero" style="position: relative; z-index: 8; fill: rgb(95, 103, 156); filter: url(#inner-shadow-filter-0);" transform="matrix(-0.82878, 0.559575, -0.559575, -0.82878, 345.593202, 1020.182699)"/>
  <path d="M -371.499 482.405 C -401.32 571.904 -386.065 628.016 -325.739 650.74 C -235.247 684.827 -28.953 698.461 66.262 772.404 C 161.474 846.345 414.581 789.183 442.448 662.276 C 470.316 535.369 524.82 339.765 101.621 339.765 C -180.514 339.765 -338.218 387.311 -371.498 482.405 L -371.499 482.405 Z" fill="#FFFA72" fill-rule="nonzero" style="position: relative; z-index: 9; fill: rgb(80, 86, 144); filter: url(#inner-shadow-filter-0);" transform="matrix(-0.82878, 0.559575, -0.559575, -0.82878, 388.767639, 1026.022852)"/>
  <path d="M -307.098 502.072 C -337.377 582.313 -325.922 632.621 -272.736 652.994 C -192.956 683.555 -8.542 695.778 73.895 762.072 C 156.33 828.364 385.517 777.116 415.526 663.337 C 445.535 549.558 502.145 374.188 122.727 374.188 C -130.222 374.188 -273.494 416.816 -307.097 502.072 L -307.098 502.072 Z" fill="#FFFA72" fill-rule="nonzero" style="position: relative; z-index: 10; fill: rgb(65, 69, 132); filter: url(#inner-shadow-filter-0);" transform="matrix(-0.82878, 0.559575, -0.559575, -0.82878, 430.174869, 1034.050041)"/>
  <path d="M -244.61 522.562 C -274.506 593.545 -266.323 638.047 -220.064 656.07 C -150.674 683.104 11.987 693.918 82.342 752.562 C 152.695 811.205 357.425 765.87 388.383 665.22 C 419.34 564.569 476.218 409.435 140.578 409.435 C -83.184 409.435 -211.577 447.144 -244.608 522.562 L -244.61 522.562 Z" fill="#FFFA72" fill-rule="nonzero" style="position: relative; z-index: 11; fill: rgb(50, 51, 119); filter: url(#inner-shadow-filter-0);" transform="matrix(-0.82878, 0.559575, -0.559575, -0.82878, 469.815241, 1044.263609)"/>
</svg>